<?xml version="1.0" encoding="UTF-8"?>
<!DOCTYPE svg PUBLIC "-//W3C//DTD SVG 1.1//EN" "http://www.w3.org/Graphics/SVG/1.1/DTD/svg11.dtd">
<!-- Creator: CorelDRAW X7 -->
<svg xmlns="http://www.w3.org/2000/svg" xml:space="preserve" width="18.6266mm" height="18.6266mm" version="1.1" style="shape-rendering:geometricPrecision; text-rendering:geometricPrecision; image-rendering:optimizeQuality; fill-rule:evenodd; clip-rule:evenodd"
viewBox="0 0 1863 1863"
 xmlns:xlink="http://www.w3.org/1999/xlink">
 <defs>
  <style type="text/css">
   <![CDATA[
    .str0 {stroke:blue;stroke-width:84.66;stroke-opacity:0.749020}
    .fil0 {fill:none}
    .fil2 {fill:none}
    .fil1 {fill:blue;fill-opacity:0.501961}
   ]]>
  </style>
 </defs>
 <g id="Warstwa_x0020_1">
  <metadata id="CorelCorpID_0Corel-Layer"/>
  <rect class="fil0" width="1863" height="1863"/>
  <path class="fil1" d="M931 466c258,0 466,208 466,465 0,258 -208,466 -466,466 -257,0 -465,-208 -465,-466 0,-257 208,-465 465,-465z"/>
  <polygon class="fil1" points="931,0 677,339 1185,339 "/>
  <path class="fil2 str0" d="M931 423c281,0 508,228 508,508 0,281 -227,508 -508,508 -280,0 -508,-227 -508,-508 0,-280 228,-508 508,-508z"/>
 </g>
</svg>
